# xmcd
#
# Track frame offsets:
#	183
#	14100
#	24773
#	34610
#	47283
#	64318
#	74970
#	85903
#	95390
#	111743
#
# Disc length: 1706 seconds
#
# Revision: 0
# Processed by: cddbd v1.4PL0 Copyright (c) Steve Scherf et al.
# Submitted via: audiograbber 1.80.04
#
DISCID=8806a80a
DTITLE=Various Artist - 1965 Billboard Top Rock'N'Roll Hits
DYEAR=1900
DGENRE=Pop
TTITLE0=The McCoys - Hang On Sloopy
TTITLE1=The Byrds - Mr. Tambourine Man
TTITLE2=Gary Lewis and The Playboys - This Diamond Ring
TTITLE3=The Beach Boys - Help Me, Rhonda
TTITLE4=The Righteous Brothers - You've Lost That Lovin' Feelin'
TTITLE5=Sam The Sham and The Pharoahs - Wooly Bully
TTITLE6=Len Barry - 1-2-3
TTITLE7=Roy Head - Treat Her Right
TTITLE8=The Byrds - Turn!Turn!Turn!
TTITLE9=Barry McGuire - Eve Of Destruction
EXTD=
EXTT0=
EXTT1=
EXTT2=
EXTT3=
EXTT4=
EXTT5=
EXTT6=
EXTT7=
EXTT8=
EXTT9=
PLAYORDER=
